<mxfile host="app.diagrams.net" agent="Mozilla/5.0 (Windows NT 10.0; Win64; x64) AppleWebKit/537.36 (KHTML, like Gecko) Chrome/131.0.0.0 Safari/537.36" version="26.0.5">
  <diagram name="Page-1" id="QrJPoWBHkTEi_CNTFHu0">
    <mxGraphModel dx="1114" dy="638" grid="1" gridSize="10" guides="1" tooltips="1" connect="1" arrows="1" fold="1" page="1" pageScale="1" pageWidth="1100" pageHeight="850" math="0" shadow="0">
      <root>
        <mxCell id="0" />
        <mxCell id="1" parent="0" />
        <mxCell id="-2v_ASkOK3I8ls6afHDm-10" value="" style="edgeStyle=orthogonalEdgeStyle;rounded=0;orthogonalLoop=1;jettySize=auto;html=1;entryX=0.5;entryY=0;entryDx=0;entryDy=0;" edge="1" parent="1" source="-2v_ASkOK3I8ls6afHDm-2" target="-2v_ASkOK3I8ls6afHDm-9">
          <mxGeometry relative="1" as="geometry" />
        </mxCell>
        <mxCell id="-2v_ASkOK3I8ls6afHDm-13" value="" style="edgeStyle=orthogonalEdgeStyle;rounded=0;orthogonalLoop=1;jettySize=auto;html=1;entryX=0.5;entryY=0;entryDx=0;entryDy=0;" edge="1" parent="1" source="-2v_ASkOK3I8ls6afHDm-2" target="-2v_ASkOK3I8ls6afHDm-14">
          <mxGeometry relative="1" as="geometry">
            <mxPoint x="360" y="330" as="targetPoint" />
          </mxGeometry>
        </mxCell>
        <mxCell id="-2v_ASkOK3I8ls6afHDm-2" value="от администратор?" style="rhombus;whiteSpace=wrap;html=1;" vertex="1" parent="1">
          <mxGeometry x="440" y="270" width="120" height="120" as="geometry" />
        </mxCell>
        <mxCell id="-2v_ASkOK3I8ls6afHDm-4" style="edgeStyle=orthogonalEdgeStyle;rounded=0;orthogonalLoop=1;jettySize=auto;html=1;exitX=0.5;exitY=1;exitDx=0;exitDy=0;entryX=0.5;entryY=0;entryDx=0;entryDy=0;" edge="1" parent="1" source="-2v_ASkOK3I8ls6afHDm-3" target="-2v_ASkOK3I8ls6afHDm-2">
          <mxGeometry relative="1" as="geometry" />
        </mxCell>
        <mxCell id="-2v_ASkOK3I8ls6afHDm-3" value="подаден е пин код" style="rounded=0;whiteSpace=wrap;html=1;" vertex="1" parent="1">
          <mxGeometry x="440" y="140" width="120" height="60" as="geometry" />
        </mxCell>
        <mxCell id="-2v_ASkOK3I8ls6afHDm-9" value="Излез от тази финкция" style="whiteSpace=wrap;html=1;" vertex="1" parent="1">
          <mxGeometry x="620" y="500" width="120" height="60" as="geometry" />
        </mxCell>
        <mxCell id="-2v_ASkOK3I8ls6afHDm-11" value="ДА" style="text;html=1;align=center;verticalAlign=middle;whiteSpace=wrap;rounded=0;" vertex="1" parent="1">
          <mxGeometry x="580" y="300" width="60" height="30" as="geometry" />
        </mxCell>
        <mxCell id="-2v_ASkOK3I8ls6afHDm-16" value="" style="edgeStyle=orthogonalEdgeStyle;rounded=0;orthogonalLoop=1;jettySize=auto;html=1;" edge="1" parent="1" source="-2v_ASkOK3I8ls6afHDm-14" target="-2v_ASkOK3I8ls6afHDm-15">
          <mxGeometry relative="1" as="geometry" />
        </mxCell>
        <mxCell id="-2v_ASkOK3I8ls6afHDm-21" value="" style="edgeStyle=orthogonalEdgeStyle;rounded=0;orthogonalLoop=1;jettySize=auto;html=1;entryX=0.5;entryY=0;entryDx=0;entryDy=0;" edge="1" parent="1" source="-2v_ASkOK3I8ls6afHDm-14" target="-2v_ASkOK3I8ls6afHDm-20">
          <mxGeometry relative="1" as="geometry" />
        </mxCell>
        <mxCell id="-2v_ASkOK3I8ls6afHDm-14" value="От живущ?" style="rhombus;whiteSpace=wrap;html=1;" vertex="1" parent="1">
          <mxGeometry x="270" y="380" width="100" height="100" as="geometry" />
        </mxCell>
        <mxCell id="-2v_ASkOK3I8ls6afHDm-27" style="edgeStyle=orthogonalEdgeStyle;rounded=0;orthogonalLoop=1;jettySize=auto;html=1;exitX=1;exitY=0.5;exitDx=0;exitDy=0;entryX=0;entryY=0.5;entryDx=0;entryDy=0;" edge="1" parent="1" source="-2v_ASkOK3I8ls6afHDm-15" target="-2v_ASkOK3I8ls6afHDm-9">
          <mxGeometry relative="1" as="geometry" />
        </mxCell>
        <mxCell id="-2v_ASkOK3I8ls6afHDm-15" value="направи го админ" style="whiteSpace=wrap;html=1;" vertex="1" parent="1">
          <mxGeometry x="440" y="500" width="120" height="60" as="geometry" />
        </mxCell>
        <mxCell id="-2v_ASkOK3I8ls6afHDm-17" value="ДА" style="text;html=1;align=center;verticalAlign=middle;whiteSpace=wrap;rounded=0;" vertex="1" parent="1">
          <mxGeometry x="380" y="395" width="60" height="30" as="geometry" />
        </mxCell>
        <mxCell id="-2v_ASkOK3I8ls6afHDm-23" value="" style="edgeStyle=orthogonalEdgeStyle;rounded=0;orthogonalLoop=1;jettySize=auto;html=1;entryX=0;entryY=0.5;entryDx=0;entryDy=0;exitX=1;exitY=0.5;exitDx=0;exitDy=0;" edge="1" parent="1" source="-2v_ASkOK3I8ls6afHDm-20" target="-2v_ASkOK3I8ls6afHDm-15">
          <mxGeometry relative="1" as="geometry">
            <mxPoint x="140" y="540" as="targetPoint" />
            <Array as="points">
              <mxPoint x="230" y="530" />
              <mxPoint x="230" y="530" />
            </Array>
          </mxGeometry>
        </mxCell>
        <mxCell id="-2v_ASkOK3I8ls6afHDm-20" value="Направи го живущ" style="whiteSpace=wrap;html=1;" vertex="1" parent="1">
          <mxGeometry x="100" y="500" width="120" height="60" as="geometry" />
        </mxCell>
        <mxCell id="-2v_ASkOK3I8ls6afHDm-26" value="НЕ" style="text;html=1;align=center;verticalAlign=middle;whiteSpace=wrap;rounded=0;" vertex="1" parent="1">
          <mxGeometry x="200" y="400" width="60" height="30" as="geometry" />
        </mxCell>
        <mxCell id="-2v_ASkOK3I8ls6afHDm-28" value="НЕ" style="text;html=1;align=center;verticalAlign=middle;whiteSpace=wrap;rounded=0;" vertex="1" parent="1">
          <mxGeometry x="360" y="300" width="60" height="30" as="geometry" />
        </mxCell>
      </root>
    </mxGraphModel>
  </diagram>
</mxfile>
